<mxfile host="app.diagrams.net" modified="2023-10-08T12:01:03.294Z" agent="Mozilla/5.0 (Windows NT 10.0; Win64; x64) AppleWebKit/537.36 (KHTML, like Gecko) Chrome/116.0.0.0 Safari/537.36 OPR/102.0.0.0" etag="pt8g-dKI1lxwNZ9gFdOu" version="22.0.4" type="github" pages="6">
  <diagram name="вариант 2 задание 1" id="ODC9LFAGLmHbSum6EZUV">
    <mxGraphModel dx="1393" dy="766" grid="1" gridSize="10" guides="1" tooltips="1" connect="1" arrows="1" fold="1" page="1" pageScale="1" pageWidth="827" pageHeight="1169" math="0" shadow="0">
      <root>
        <mxCell id="0" />
        <mxCell id="1" parent="0" />
        <mxCell id="DY7lIYdJrIsHro-P984t-7" style="edgeStyle=orthogonalEdgeStyle;rounded=0;orthogonalLoop=1;jettySize=auto;html=1;exitX=0.5;exitY=1;exitDx=0;exitDy=0;entryX=0.5;entryY=0;entryDx=0;entryDy=0;" parent="1" source="DY7lIYdJrIsHro-P984t-1" target="DY7lIYdJrIsHro-P984t-3" edge="1">
          <mxGeometry relative="1" as="geometry" />
        </mxCell>
        <mxCell id="DY7lIYdJrIsHro-P984t-1" value="Начало" style="rounded=1;whiteSpace=wrap;html=1;arcSize=50;" parent="1" vertex="1">
          <mxGeometry x="320" y="175" width="120" height="60" as="geometry" />
        </mxCell>
        <mxCell id="DY7lIYdJrIsHro-P984t-2" value="Конец" style="rounded=1;whiteSpace=wrap;html=1;arcSize=50;" parent="1" vertex="1">
          <mxGeometry x="320" y="495" width="120" height="60" as="geometry" />
        </mxCell>
        <mxCell id="DY7lIYdJrIsHro-P984t-8" style="edgeStyle=orthogonalEdgeStyle;rounded=0;orthogonalLoop=1;jettySize=auto;html=1;exitX=0.5;exitY=1;exitDx=0;exitDy=0;entryX=0.5;entryY=0;entryDx=0;entryDy=0;" parent="1" source="DY7lIYdJrIsHro-P984t-3" target="DY7lIYdJrIsHro-P984t-5" edge="1">
          <mxGeometry relative="1" as="geometry" />
        </mxCell>
        <mxCell id="DY7lIYdJrIsHro-P984t-3" value="Ввод: a, b, c, d" style="shape=parallelogram;perimeter=parallelogramPerimeter;whiteSpace=wrap;html=1;fixedSize=1;" parent="1" vertex="1">
          <mxGeometry x="320" y="255" width="120" height="60" as="geometry" />
        </mxCell>
        <mxCell id="DY7lIYdJrIsHro-P984t-10" style="edgeStyle=orthogonalEdgeStyle;rounded=0;orthogonalLoop=1;jettySize=auto;html=1;exitX=0.5;exitY=1;exitDx=0;exitDy=0;entryX=0.5;entryY=0;entryDx=0;entryDy=0;" parent="1" source="DY7lIYdJrIsHro-P984t-4" target="DY7lIYdJrIsHro-P984t-2" edge="1">
          <mxGeometry relative="1" as="geometry" />
        </mxCell>
        <mxCell id="DY7lIYdJrIsHro-P984t-4" value="Вывод: e" style="shape=parallelogram;perimeter=parallelogramPerimeter;whiteSpace=wrap;html=1;fixedSize=1;" parent="1" vertex="1">
          <mxGeometry x="320" y="415" width="120" height="60" as="geometry" />
        </mxCell>
        <mxCell id="DY7lIYdJrIsHro-P984t-9" style="edgeStyle=orthogonalEdgeStyle;rounded=0;orthogonalLoop=1;jettySize=auto;html=1;exitX=0.5;exitY=1;exitDx=0;exitDy=0;entryX=0.5;entryY=0;entryDx=0;entryDy=0;" parent="1" source="DY7lIYdJrIsHro-P984t-5" target="DY7lIYdJrIsHro-P984t-4" edge="1">
          <mxGeometry relative="1" as="geometry" />
        </mxCell>
        <mxCell id="DY7lIYdJrIsHro-P984t-5" value="e = d - (a + b + c)" style="rounded=0;whiteSpace=wrap;html=1;" parent="1" vertex="1">
          <mxGeometry x="320" y="335" width="120" height="60" as="geometry" />
        </mxCell>
        <mxCell id="mTyzGe1qH-O2UBiY-heP-1" value="" style="strokeWidth=2;html=1;shape=mxgraph.flowchart.annotation_2;align=left;labelPosition=right;pointerEvents=1;" parent="1" vertex="1">
          <mxGeometry x="486" y="257.5" width="50" height="55" as="geometry" />
        </mxCell>
        <mxCell id="mTyzGe1qH-O2UBiY-heP-2" value="" style="strokeWidth=2;html=1;shape=mxgraph.flowchart.annotation_2;align=left;labelPosition=right;pointerEvents=1;" parent="1" vertex="1">
          <mxGeometry x="486" y="337.5" width="50" height="55" as="geometry" />
        </mxCell>
        <mxCell id="mTyzGe1qH-O2UBiY-heP-3" value="" style="endArrow=none;dashed=1;html=1;rounded=0;exitX=1;exitY=0.5;exitDx=0;exitDy=0;entryX=0;entryY=0.5;entryDx=0;entryDy=0;entryPerimeter=0;" parent="1" source="DY7lIYdJrIsHro-P984t-3" target="mTyzGe1qH-O2UBiY-heP-1" edge="1">
          <mxGeometry width="50" height="50" relative="1" as="geometry">
            <mxPoint x="446" y="345" as="sourcePoint" />
            <mxPoint x="496" y="295" as="targetPoint" />
          </mxGeometry>
        </mxCell>
        <mxCell id="mTyzGe1qH-O2UBiY-heP-4" value="" style="endArrow=none;dashed=1;html=1;rounded=0;exitX=1;exitY=0.5;exitDx=0;exitDy=0;entryX=0;entryY=0.5;entryDx=0;entryDy=0;entryPerimeter=0;" parent="1" source="DY7lIYdJrIsHro-P984t-5" target="mTyzGe1qH-O2UBiY-heP-2" edge="1">
          <mxGeometry width="50" height="50" relative="1" as="geometry">
            <mxPoint x="446" y="365" as="sourcePoint" />
            <mxPoint x="506" y="305" as="targetPoint" />
          </mxGeometry>
        </mxCell>
        <mxCell id="mTyzGe1qH-O2UBiY-heP-6" value="a, b, c, d - суммы" style="text;html=1;align=center;verticalAlign=middle;resizable=0;points=[];autosize=1;" parent="1" vertex="1">
          <mxGeometry x="516" y="270" width="120" height="30" as="geometry" />
        </mxCell>
        <mxCell id="mTyzGe1qH-O2UBiY-heP-7" value="e - сумма сдачи после покупки" style="text;html=1;align=center;verticalAlign=middle;resizable=0;points=[];autosize=1;" parent="1" vertex="1">
          <mxGeometry x="516" y="350" width="190" height="30" as="geometry" />
        </mxCell>
        <mxCell id="BYUeMNhNJZWuw18ngvyP-2" value="1" style="text;html=1;align=center;verticalAlign=middle;resizable=0;points=[];autosize=1;strokeColor=none;fillColor=none;labelBackgroundColor=default;" parent="1" vertex="1">
          <mxGeometry x="333" y="160" width="30" height="30" as="geometry" />
        </mxCell>
        <mxCell id="BYUeMNhNJZWuw18ngvyP-3" value="2" style="text;html=1;align=center;verticalAlign=middle;resizable=0;points=[];autosize=1;strokeColor=none;fillColor=none;labelBackgroundColor=default;" parent="1" vertex="1">
          <mxGeometry x="333" y="240" width="30" height="30" as="geometry" />
        </mxCell>
        <mxCell id="BYUeMNhNJZWuw18ngvyP-4" value="3" style="text;html=1;align=center;verticalAlign=middle;resizable=0;points=[];autosize=1;strokeColor=none;fillColor=none;labelBackgroundColor=default;" parent="1" vertex="1">
          <mxGeometry x="333" y="320" width="30" height="30" as="geometry" />
        </mxCell>
        <mxCell id="BYUeMNhNJZWuw18ngvyP-5" value="4" style="text;html=1;align=center;verticalAlign=middle;resizable=0;points=[];autosize=1;strokeColor=none;fillColor=none;labelBackgroundColor=default;" parent="1" vertex="1">
          <mxGeometry x="333" y="400" width="30" height="30" as="geometry" />
        </mxCell>
        <mxCell id="BYUeMNhNJZWuw18ngvyP-6" value="5" style="text;html=1;align=center;verticalAlign=middle;resizable=0;points=[];autosize=1;strokeColor=none;fillColor=none;labelBackgroundColor=default;" parent="1" vertex="1">
          <mxGeometry x="333" y="480" width="30" height="30" as="geometry" />
        </mxCell>
        <mxCell id="EXQHdpTOvDDozdnqxdGJ-1" value="&lt;font style=&quot;font-size: 18px;&quot;&gt;Пирогов Денис 2 ИСП&lt;/font&gt;" style="text;html=1;align=center;verticalAlign=middle;resizable=0;points=[];autosize=1;" parent="1" vertex="1">
          <mxGeometry width="210" height="40" as="geometry" />
        </mxCell>
        <mxCell id="EXQHdpTOvDDozdnqxdGJ-3" value="&lt;font style=&quot;font-size: 16px;&quot;&gt;№1&lt;/font&gt;&lt;div style=&quot;font-size: 16px;&quot;&gt;&lt;font style=&quot;font-size: 16px;&quot;&gt;Составьте алгоритм для определения сдачи после покупки в магазине товара: перчаток&lt;/font&gt;&lt;/div&gt;&lt;div style=&quot;font-size: 16px;&quot;&gt;&lt;font style=&quot;font-size: 16px;&quot;&gt;стоимостью а руб., портмоне стоимостью b руб., галстука стоимостью с руб. Исходная сумма,&lt;/font&gt;&lt;/div&gt;&lt;div style=&quot;font-size: 16px;&quot;&gt;&lt;font style=&quot;font-size: 16px;&quot;&gt;выделенная на покупку, d руб.&lt;/font&gt;&lt;/div&gt;" style="text;html=1;align=center;verticalAlign=middle;resizable=0;points=[];autosize=1;" parent="1" vertex="1">
          <mxGeometry x="49" y="40" width="730" height="90" as="geometry" />
        </mxCell>
      </root>
    </mxGraphModel>
  </diagram>
  <diagram id="sje73Lc-wtjcD4IFLM9H" name="вариант 2 задание 3">
    <mxGraphModel dx="1393" dy="766" grid="1" gridSize="10" guides="1" tooltips="1" connect="1" arrows="1" fold="1" page="1" pageScale="1" pageWidth="827" pageHeight="1169" math="0" shadow="0">
      <root>
        <mxCell id="0" />
        <mxCell id="1" parent="0" />
        <mxCell id="zfxix-hAYoBwDxTuPmVV-17" style="edgeStyle=orthogonalEdgeStyle;rounded=0;orthogonalLoop=1;jettySize=auto;html=1;exitX=0.5;exitY=1;exitDx=0;exitDy=0;entryX=0.5;entryY=0;entryDx=0;entryDy=0;" parent="1" source="4mt5zKaUXuiqCgcZ64kJ-1" target="zfxix-hAYoBwDxTuPmVV-3" edge="1">
          <mxGeometry relative="1" as="geometry" />
        </mxCell>
        <mxCell id="4mt5zKaUXuiqCgcZ64kJ-1" value="Начало" style="rounded=1;whiteSpace=wrap;html=1;arcSize=50;" parent="1" vertex="1">
          <mxGeometry x="320" y="173" width="120" height="60" as="geometry" />
        </mxCell>
        <mxCell id="PWOghGYoISEkaeLhvXjW-1" value="1" style="text;html=1;align=center;verticalAlign=middle;resizable=0;points=[];autosize=1;strokeColor=none;fillColor=none;labelBackgroundColor=default;" parent="1" vertex="1">
          <mxGeometry x="320" y="160" width="30" height="30" as="geometry" />
        </mxCell>
        <mxCell id="zfxix-hAYoBwDxTuPmVV-1" value="Конец" style="rounded=1;whiteSpace=wrap;html=1;arcSize=50;" parent="1" vertex="1">
          <mxGeometry x="320" y="493" width="120" height="60" as="geometry" />
        </mxCell>
        <mxCell id="zfxix-hAYoBwDxTuPmVV-2" style="edgeStyle=orthogonalEdgeStyle;rounded=0;orthogonalLoop=1;jettySize=auto;html=1;exitX=0.5;exitY=1;exitDx=0;exitDy=0;entryX=0.5;entryY=0;entryDx=0;entryDy=0;" parent="1" source="zfxix-hAYoBwDxTuPmVV-3" edge="1">
          <mxGeometry relative="1" as="geometry">
            <mxPoint x="380" y="333" as="targetPoint" />
          </mxGeometry>
        </mxCell>
        <mxCell id="zfxix-hAYoBwDxTuPmVV-3" value="Ввод: a" style="shape=parallelogram;perimeter=parallelogramPerimeter;whiteSpace=wrap;html=1;fixedSize=1;" parent="1" vertex="1">
          <mxGeometry x="320" y="253" width="120" height="60" as="geometry" />
        </mxCell>
        <mxCell id="zfxix-hAYoBwDxTuPmVV-4" style="edgeStyle=orthogonalEdgeStyle;rounded=0;orthogonalLoop=1;jettySize=auto;html=1;exitX=0.5;exitY=1;exitDx=0;exitDy=0;entryX=0.5;entryY=0;entryDx=0;entryDy=0;" parent="1" source="zfxix-hAYoBwDxTuPmVV-5" target="zfxix-hAYoBwDxTuPmVV-1" edge="1">
          <mxGeometry relative="1" as="geometry" />
        </mxCell>
        <mxCell id="zfxix-hAYoBwDxTuPmVV-5" value="Вывод: b&amp;nbsp;" style="shape=parallelogram;perimeter=parallelogramPerimeter;whiteSpace=wrap;html=1;fixedSize=1;" parent="1" vertex="1">
          <mxGeometry x="320" y="414" width="120" height="60" as="geometry" />
        </mxCell>
        <mxCell id="zfxix-hAYoBwDxTuPmVV-8" value="" style="strokeWidth=2;html=1;shape=mxgraph.flowchart.annotation_2;align=left;labelPosition=right;pointerEvents=1;" parent="1" vertex="1">
          <mxGeometry x="486" y="255.5" width="50" height="55" as="geometry" />
        </mxCell>
        <mxCell id="zfxix-hAYoBwDxTuPmVV-10" value="" style="endArrow=none;dashed=1;html=1;rounded=0;exitX=1;exitY=0.5;exitDx=0;exitDy=0;entryX=0;entryY=0.5;entryDx=0;entryDy=0;entryPerimeter=0;" parent="1" source="zfxix-hAYoBwDxTuPmVV-3" target="zfxix-hAYoBwDxTuPmVV-8" edge="1">
          <mxGeometry width="50" height="50" relative="1" as="geometry">
            <mxPoint x="446" y="343" as="sourcePoint" />
            <mxPoint x="496" y="293" as="targetPoint" />
          </mxGeometry>
        </mxCell>
        <mxCell id="zfxix-hAYoBwDxTuPmVV-12" value="a -&amp;nbsp;сумма с продажи 50 газет&amp;nbsp;" style="text;html=1;align=center;verticalAlign=middle;resizable=0;points=[];autosize=1;strokeColor=none;fillColor=none;" parent="1" vertex="1">
          <mxGeometry x="516" y="268" width="190" height="30" as="geometry" />
        </mxCell>
        <mxCell id="zfxix-hAYoBwDxTuPmVV-16" value="2" style="text;html=1;align=center;verticalAlign=middle;resizable=0;points=[];autosize=1;strokeColor=none;fillColor=none;labelBackgroundColor=default;" parent="1" vertex="1">
          <mxGeometry x="333" y="238" width="30" height="30" as="geometry" />
        </mxCell>
        <mxCell id="zfxix-hAYoBwDxTuPmVV-53" value="4" style="text;html=1;align=center;verticalAlign=middle;resizable=0;points=[];autosize=1;strokeColor=none;fillColor=none;labelBackgroundColor=default;" parent="1" vertex="1">
          <mxGeometry x="333" y="399" width="30" height="30" as="geometry" />
        </mxCell>
        <mxCell id="zfxix-hAYoBwDxTuPmVV-54" value="5" style="text;html=1;align=center;verticalAlign=middle;resizable=0;points=[];autosize=1;strokeColor=none;fillColor=none;labelBackgroundColor=default;" parent="1" vertex="1">
          <mxGeometry x="331" y="478" width="30" height="30" as="geometry" />
        </mxCell>
        <mxCell id="6U79FlQ25LUXAYMpwLec-2" style="edgeStyle=orthogonalEdgeStyle;rounded=0;orthogonalLoop=1;jettySize=auto;html=1;exitX=0.5;exitY=1;exitDx=0;exitDy=0;entryX=0.5;entryY=0;entryDx=0;entryDy=0;" parent="1" source="6U79FlQ25LUXAYMpwLec-1" target="zfxix-hAYoBwDxTuPmVV-5" edge="1">
          <mxGeometry relative="1" as="geometry" />
        </mxCell>
        <mxCell id="6U79FlQ25LUXAYMpwLec-1" value="b = 50*a+150*1,2*a" style="rounded=0;whiteSpace=wrap;html=1;" parent="1" vertex="1">
          <mxGeometry x="320" y="333" width="120" height="60" as="geometry" />
        </mxCell>
        <mxCell id="6U79FlQ25LUXAYMpwLec-3" value="3" style="text;html=1;align=center;verticalAlign=middle;resizable=0;points=[];autosize=1;strokeColor=none;fillColor=none;labelBackgroundColor=default;" parent="1" vertex="1">
          <mxGeometry x="331" y="319" width="30" height="30" as="geometry" />
        </mxCell>
        <mxCell id="OxH6FQGK2bopeZFURAIq-2" value="" style="strokeWidth=2;html=1;shape=mxgraph.flowchart.annotation_2;align=left;labelPosition=right;pointerEvents=1;" parent="1" vertex="1">
          <mxGeometry x="486" y="335.5" width="50" height="55" as="geometry" />
        </mxCell>
        <mxCell id="OxH6FQGK2bopeZFURAIq-3" value="" style="endArrow=none;dashed=1;html=1;rounded=0;exitX=1;exitY=0.5;exitDx=0;exitDy=0;entryX=0;entryY=0.5;entryDx=0;entryDy=0;entryPerimeter=0;" parent="1" source="6U79FlQ25LUXAYMpwLec-1" target="OxH6FQGK2bopeZFURAIq-2" edge="1">
          <mxGeometry width="50" height="50" relative="1" as="geometry">
            <mxPoint x="440" y="293" as="sourcePoint" />
            <mxPoint x="496" y="293" as="targetPoint" />
          </mxGeometry>
        </mxCell>
        <mxCell id="OxH6FQGK2bopeZFURAIq-4" value="b - общая сумма с продажи 200 газет&amp;nbsp;" style="text;html=1;align=center;verticalAlign=middle;resizable=0;points=[];autosize=1;strokeColor=none;fillColor=none;" parent="1" vertex="1">
          <mxGeometry x="505" y="350" width="230" height="30" as="geometry" />
        </mxCell>
        <mxCell id="-gaOjO8GJQse7ylmWIUW-1" value="&lt;font style=&quot;font-size: 18px;&quot;&gt;Пирогов Денис 2 ИСП&lt;/font&gt;" style="text;html=1;align=center;verticalAlign=middle;resizable=0;points=[];autosize=1;strokeColor=none;fillColor=none;" parent="1" vertex="1">
          <mxGeometry width="210" height="40" as="geometry" />
        </mxCell>
        <mxCell id="-gaOjO8GJQse7ylmWIUW-2" value="&lt;font style=&quot;font-size: 16px;&quot;&gt;№3&lt;/font&gt;&lt;div style=&quot;font-size: 16px;&quot;&gt;&lt;div&gt;Уличный продавец газет получает а рублей с продажи каждой из первых 50 газет. С&lt;/div&gt;&lt;div&gt;продажи каждой из остальных газет он получает на 20% больше. Составьте алгоритм, который&lt;/div&gt;&lt;div&gt;вычислит заработок продавца, если он продаст за день 200 газет.&lt;/div&gt;&lt;/div&gt;" style="text;html=1;align=center;verticalAlign=middle;resizable=0;points=[];autosize=1;strokeColor=none;fillColor=none;" parent="1" vertex="1">
          <mxGeometry x="49" y="40" width="730" height="90" as="geometry" />
        </mxCell>
      </root>
    </mxGraphModel>
  </diagram>
  <diagram id="gSNzDhHIFDjk7a7nVDa1" name="вариант 2 задание 5">
    <mxGraphModel dx="1393" dy="766" grid="1" gridSize="10" guides="1" tooltips="1" connect="1" arrows="1" fold="1" page="1" pageScale="1" pageWidth="827" pageHeight="1169" math="0" shadow="0">
      <root>
        <mxCell id="0" />
        <mxCell id="1" parent="0" />
        <mxCell id="sRINhI4-shyqRReoHG4c-1" style="edgeStyle=orthogonalEdgeStyle;rounded=0;orthogonalLoop=1;jettySize=auto;html=1;exitX=0.5;exitY=1;exitDx=0;exitDy=0;entryX=0.5;entryY=0;entryDx=0;entryDy=0;" parent="1" source="sRINhI4-shyqRReoHG4c-2" target="sRINhI4-shyqRReoHG4c-6" edge="1">
          <mxGeometry relative="1" as="geometry" />
        </mxCell>
        <mxCell id="sRINhI4-shyqRReoHG4c-2" value="Начало" style="rounded=1;whiteSpace=wrap;html=1;arcSize=50;" parent="1" vertex="1">
          <mxGeometry x="320" y="175" width="120" height="60" as="geometry" />
        </mxCell>
        <mxCell id="sRINhI4-shyqRReoHG4c-3" value="1" style="text;html=1;align=center;verticalAlign=middle;resizable=0;points=[];autosize=1;strokeColor=none;fillColor=none;labelBackgroundColor=default;" parent="1" vertex="1">
          <mxGeometry x="331" y="160" width="30" height="30" as="geometry" />
        </mxCell>
        <mxCell id="sRINhI4-shyqRReoHG4c-4" value="Конец" style="rounded=1;whiteSpace=wrap;html=1;arcSize=50;" parent="1" vertex="1">
          <mxGeometry x="320" y="575" width="120" height="60" as="geometry" />
        </mxCell>
        <mxCell id="-cePMDOSLPpMPktoq-Yq-3" style="edgeStyle=orthogonalEdgeStyle;rounded=0;orthogonalLoop=1;jettySize=auto;html=1;exitX=0.5;exitY=1;exitDx=0;exitDy=0;entryX=0.5;entryY=0;entryDx=0;entryDy=0;" parent="1" source="sRINhI4-shyqRReoHG4c-6" target="-cePMDOSLPpMPktoq-Yq-1" edge="1">
          <mxGeometry relative="1" as="geometry" />
        </mxCell>
        <mxCell id="sRINhI4-shyqRReoHG4c-6" value="Ввод: a" style="shape=parallelogram;perimeter=parallelogramPerimeter;whiteSpace=wrap;html=1;fixedSize=1;" parent="1" vertex="1">
          <mxGeometry x="320" y="255" width="120" height="60" as="geometry" />
        </mxCell>
        <mxCell id="sRINhI4-shyqRReoHG4c-7" style="edgeStyle=orthogonalEdgeStyle;rounded=0;orthogonalLoop=1;jettySize=auto;html=1;exitX=0.5;exitY=1;exitDx=0;exitDy=0;entryX=0.5;entryY=0;entryDx=0;entryDy=0;" parent="1" source="sRINhI4-shyqRReoHG4c-8" target="sRINhI4-shyqRReoHG4c-4" edge="1">
          <mxGeometry relative="1" as="geometry" />
        </mxCell>
        <mxCell id="sRINhI4-shyqRReoHG4c-8" value="Вывод: b, c&amp;nbsp;" style="shape=parallelogram;perimeter=parallelogramPerimeter;whiteSpace=wrap;html=1;fixedSize=1;" parent="1" vertex="1">
          <mxGeometry x="320" y="495" width="120" height="60" as="geometry" />
        </mxCell>
        <mxCell id="sRINhI4-shyqRReoHG4c-11" value="" style="strokeWidth=2;html=1;shape=mxgraph.flowchart.annotation_2;align=left;labelPosition=right;pointerEvents=1;" parent="1" vertex="1">
          <mxGeometry x="486" y="257.5" width="50" height="55" as="geometry" />
        </mxCell>
        <mxCell id="sRINhI4-shyqRReoHG4c-13" value="" style="endArrow=none;dashed=1;html=1;rounded=0;exitX=1;exitY=0.5;exitDx=0;exitDy=0;entryX=0;entryY=0.5;entryDx=0;entryDy=0;entryPerimeter=0;" parent="1" source="sRINhI4-shyqRReoHG4c-6" target="sRINhI4-shyqRReoHG4c-11" edge="1">
          <mxGeometry width="50" height="50" relative="1" as="geometry">
            <mxPoint x="446" y="345" as="sourcePoint" />
            <mxPoint x="496" y="295" as="targetPoint" />
          </mxGeometry>
        </mxCell>
        <mxCell id="sRINhI4-shyqRReoHG4c-15" value="a - вес в фунтах" style="text;html=1;align=center;verticalAlign=middle;resizable=0;points=[];autosize=1;strokeColor=none;fillColor=none;" parent="1" vertex="1">
          <mxGeometry x="516" y="270" width="110" height="30" as="geometry" />
        </mxCell>
        <mxCell id="sRINhI4-shyqRReoHG4c-18" value="2" style="text;html=1;align=center;verticalAlign=middle;resizable=0;points=[];autosize=1;strokeColor=none;fillColor=none;labelBackgroundColor=default;" parent="1" vertex="1">
          <mxGeometry x="333" y="240" width="30" height="30" as="geometry" />
        </mxCell>
        <mxCell id="l88txaKDyGYONCmVOTKR-1" value="6" style="text;html=1;align=center;verticalAlign=middle;resizable=0;points=[];autosize=1;strokeColor=none;fillColor=none;labelBackgroundColor=default;" parent="1" vertex="1">
          <mxGeometry x="333" y="561" width="30" height="30" as="geometry" />
        </mxCell>
        <mxCell id="l88txaKDyGYONCmVOTKR-2" value="5" style="text;html=1;align=center;verticalAlign=middle;resizable=0;points=[];autosize=1;strokeColor=none;fillColor=none;labelBackgroundColor=default;" parent="1" vertex="1">
          <mxGeometry x="333" y="479" width="30" height="30" as="geometry" />
        </mxCell>
        <mxCell id="-cePMDOSLPpMPktoq-Yq-4" style="edgeStyle=orthogonalEdgeStyle;rounded=0;orthogonalLoop=1;jettySize=auto;html=1;exitX=0.5;exitY=1;exitDx=0;exitDy=0;entryX=0.5;entryY=0;entryDx=0;entryDy=0;" parent="1" source="-cePMDOSLPpMPktoq-Yq-1" target="-cePMDOSLPpMPktoq-Yq-2" edge="1">
          <mxGeometry relative="1" as="geometry" />
        </mxCell>
        <mxCell id="-cePMDOSLPpMPktoq-Yq-1" value="b = a /&amp;nbsp;2,205" style="rounded=0;whiteSpace=wrap;html=1;" parent="1" vertex="1">
          <mxGeometry x="320" y="335" width="120" height="60" as="geometry" />
        </mxCell>
        <mxCell id="-cePMDOSLPpMPktoq-Yq-5" style="edgeStyle=orthogonalEdgeStyle;rounded=0;orthogonalLoop=1;jettySize=auto;html=1;exitX=0.5;exitY=1;exitDx=0;exitDy=0;entryX=0.5;entryY=0;entryDx=0;entryDy=0;" parent="1" source="-cePMDOSLPpMPktoq-Yq-2" target="sRINhI4-shyqRReoHG4c-8" edge="1">
          <mxGeometry relative="1" as="geometry" />
        </mxCell>
        <mxCell id="-cePMDOSLPpMPktoq-Yq-2" value="c = b * 1000" style="rounded=0;whiteSpace=wrap;html=1;" parent="1" vertex="1">
          <mxGeometry x="320" y="415" width="120" height="60" as="geometry" />
        </mxCell>
        <mxCell id="-cePMDOSLPpMPktoq-Yq-7" value="3" style="text;html=1;align=center;verticalAlign=middle;resizable=0;points=[];autosize=1;strokeColor=none;fillColor=none;labelBackgroundColor=default;" parent="1" vertex="1">
          <mxGeometry x="333" y="320" width="30" height="30" as="geometry" />
        </mxCell>
        <mxCell id="-cePMDOSLPpMPktoq-Yq-8" value="4" style="text;html=1;align=center;verticalAlign=middle;resizable=0;points=[];autosize=1;strokeColor=none;fillColor=none;labelBackgroundColor=default;" parent="1" vertex="1">
          <mxGeometry x="331" y="400" width="30" height="30" as="geometry" />
        </mxCell>
        <mxCell id="-cePMDOSLPpMPktoq-Yq-9" value="" style="strokeWidth=2;html=1;shape=mxgraph.flowchart.annotation_2;align=left;labelPosition=right;pointerEvents=1;" parent="1" vertex="1">
          <mxGeometry x="486" y="335" width="50" height="55" as="geometry" />
        </mxCell>
        <mxCell id="-cePMDOSLPpMPktoq-Yq-10" value="" style="endArrow=none;dashed=1;html=1;rounded=0;exitX=1;exitY=0.5;exitDx=0;exitDy=0;entryX=0;entryY=0.5;entryDx=0;entryDy=0;entryPerimeter=0;" parent="1" target="-cePMDOSLPpMPktoq-Yq-9" edge="1">
          <mxGeometry width="50" height="50" relative="1" as="geometry">
            <mxPoint x="440" y="362.5" as="sourcePoint" />
            <mxPoint x="506" y="372.5" as="targetPoint" />
          </mxGeometry>
        </mxCell>
        <mxCell id="-cePMDOSLPpMPktoq-Yq-11" value="b - вес в килограммах" style="text;html=1;align=center;verticalAlign=middle;resizable=0;points=[];autosize=1;strokeColor=none;fillColor=none;" parent="1" vertex="1">
          <mxGeometry x="516" y="347.5" width="150" height="30" as="geometry" />
        </mxCell>
        <mxCell id="-cePMDOSLPpMPktoq-Yq-12" value="" style="strokeWidth=2;html=1;shape=mxgraph.flowchart.annotation_2;align=left;labelPosition=right;pointerEvents=1;" parent="1" vertex="1">
          <mxGeometry x="486" y="415" width="50" height="55" as="geometry" />
        </mxCell>
        <mxCell id="-cePMDOSLPpMPktoq-Yq-13" value="" style="endArrow=none;dashed=1;html=1;rounded=0;exitX=1;exitY=0.5;exitDx=0;exitDy=0;entryX=0;entryY=0.5;entryDx=0;entryDy=0;entryPerimeter=0;" parent="1" target="-cePMDOSLPpMPktoq-Yq-12" edge="1">
          <mxGeometry width="50" height="50" relative="1" as="geometry">
            <mxPoint x="440" y="442.5" as="sourcePoint" />
            <mxPoint x="476" y="465" as="targetPoint" />
          </mxGeometry>
        </mxCell>
        <mxCell id="-cePMDOSLPpMPktoq-Yq-14" value="c - вес в граммах" style="text;html=1;align=center;verticalAlign=middle;resizable=0;points=[];autosize=1;strokeColor=none;fillColor=none;" parent="1" vertex="1">
          <mxGeometry x="516" y="427.5" width="120" height="30" as="geometry" />
        </mxCell>
        <mxCell id="3vvPdaXRkXyi-8_1JSMx-1" value="&lt;font style=&quot;font-size: 18px;&quot;&gt;Пирогов Денис 2 ИСП&lt;/font&gt;" style="text;html=1;align=center;verticalAlign=middle;resizable=0;points=[];autosize=1;strokeColor=none;fillColor=none;" parent="1" vertex="1">
          <mxGeometry width="210" height="40" as="geometry" />
        </mxCell>
        <mxCell id="3vvPdaXRkXyi-8_1JSMx-2" value="&lt;font style=&quot;font-size: 16px;&quot;&gt;№5&lt;/font&gt;&lt;div style=&quot;font-size: 16px;&quot;&gt;&lt;font style=&quot;font-size: 16px;&quot;&gt;Составить алгоритм перевода веса из фунтов в килограммы и граммы.&lt;/font&gt;&lt;br&gt;&lt;/div&gt;" style="text;html=1;align=center;verticalAlign=middle;resizable=0;points=[];autosize=1;strokeColor=none;fillColor=none;" parent="1" vertex="1">
          <mxGeometry x="134" y="60" width="560" height="50" as="geometry" />
        </mxCell>
      </root>
    </mxGraphModel>
  </diagram>
  <diagram id="z8x0cmIwclwUZ_YuCAtL" name="вариант 2 задание 2">
    <mxGraphModel dx="1393" dy="766" grid="1" gridSize="10" guides="1" tooltips="1" connect="1" arrows="1" fold="1" page="1" pageScale="1" pageWidth="827" pageHeight="1169" math="0" shadow="0">
      <root>
        <mxCell id="0" />
        <mxCell id="1" parent="0" />
        <mxCell id="YZdOTx-LG6S0MW3HR8WH-1" style="edgeStyle=orthogonalEdgeStyle;rounded=0;orthogonalLoop=1;jettySize=auto;html=1;exitX=0.5;exitY=1;exitDx=0;exitDy=0;entryX=0.5;entryY=0;entryDx=0;entryDy=0;" parent="1" source="YZdOTx-LG6S0MW3HR8WH-2" target="YZdOTx-LG6S0MW3HR8WH-5" edge="1">
          <mxGeometry relative="1" as="geometry" />
        </mxCell>
        <mxCell id="YZdOTx-LG6S0MW3HR8WH-2" value="Начало" style="rounded=1;whiteSpace=wrap;html=1;arcSize=50;" parent="1" vertex="1">
          <mxGeometry x="360" y="174" width="120" height="60" as="geometry" />
        </mxCell>
        <mxCell id="YZdOTx-LG6S0MW3HR8WH-3" value="Конец" style="rounded=1;whiteSpace=wrap;html=1;arcSize=50;" parent="1" vertex="1">
          <mxGeometry x="360" y="604" width="120" height="60" as="geometry" />
        </mxCell>
        <mxCell id="YZdOTx-LG6S0MW3HR8WH-24" style="edgeStyle=orthogonalEdgeStyle;rounded=0;orthogonalLoop=1;jettySize=auto;html=1;exitX=0.5;exitY=1;exitDx=0;exitDy=0;entryX=0.5;entryY=0;entryDx=0;entryDy=0;" parent="1" source="YZdOTx-LG6S0MW3HR8WH-5" target="YZdOTx-LG6S0MW3HR8WH-23" edge="1">
          <mxGeometry relative="1" as="geometry" />
        </mxCell>
        <mxCell id="YZdOTx-LG6S0MW3HR8WH-5" value="Ввод: a" style="shape=parallelogram;perimeter=parallelogramPerimeter;whiteSpace=wrap;html=1;fixedSize=1;" parent="1" vertex="1">
          <mxGeometry x="360" y="254" width="120" height="60" as="geometry" />
        </mxCell>
        <mxCell id="YZdOTx-LG6S0MW3HR8WH-6" style="edgeStyle=orthogonalEdgeStyle;rounded=0;orthogonalLoop=1;jettySize=auto;html=1;exitX=0.5;exitY=1;exitDx=0;exitDy=0;entryX=0.5;entryY=0;entryDx=0;entryDy=0;" parent="1" source="YZdOTx-LG6S0MW3HR8WH-7" target="YZdOTx-LG6S0MW3HR8WH-3" edge="1">
          <mxGeometry relative="1" as="geometry" />
        </mxCell>
        <mxCell id="YZdOTx-LG6S0MW3HR8WH-7" value="Вывод: a" style="shape=parallelogram;perimeter=parallelogramPerimeter;whiteSpace=wrap;html=1;fixedSize=1;" parent="1" vertex="1">
          <mxGeometry x="360" y="514" width="120" height="60" as="geometry" />
        </mxCell>
        <mxCell id="YZdOTx-LG6S0MW3HR8WH-10" value="" style="strokeWidth=2;html=1;shape=mxgraph.flowchart.annotation_2;align=left;labelPosition=right;pointerEvents=1;" parent="1" vertex="1">
          <mxGeometry x="526" y="256.5" width="50" height="55" as="geometry" />
        </mxCell>
        <mxCell id="YZdOTx-LG6S0MW3HR8WH-12" value="" style="endArrow=none;dashed=1;html=1;rounded=0;exitX=1;exitY=0.5;exitDx=0;exitDy=0;entryX=0;entryY=0.5;entryDx=0;entryDy=0;entryPerimeter=0;" parent="1" source="YZdOTx-LG6S0MW3HR8WH-5" target="YZdOTx-LG6S0MW3HR8WH-10" edge="1">
          <mxGeometry width="50" height="50" relative="1" as="geometry">
            <mxPoint x="486" y="344" as="sourcePoint" />
            <mxPoint x="536" y="294" as="targetPoint" />
          </mxGeometry>
        </mxCell>
        <mxCell id="YZdOTx-LG6S0MW3HR8WH-16" value="1" style="text;html=1;align=center;verticalAlign=middle;resizable=0;points=[];autosize=1;strokeColor=none;fillColor=none;labelBackgroundColor=default;" parent="1" vertex="1">
          <mxGeometry x="373" y="160" width="30" height="30" as="geometry" />
        </mxCell>
        <mxCell id="YZdOTx-LG6S0MW3HR8WH-17" value="2" style="text;html=1;align=center;verticalAlign=middle;resizable=0;points=[];autosize=1;strokeColor=none;fillColor=none;labelBackgroundColor=default;" parent="1" vertex="1">
          <mxGeometry x="373" y="239" width="30" height="30" as="geometry" />
        </mxCell>
        <mxCell id="YZdOTx-LG6S0MW3HR8WH-20" value="7" style="text;html=1;align=center;verticalAlign=middle;resizable=0;points=[];autosize=1;strokeColor=none;fillColor=none;labelBackgroundColor=default;" parent="1" vertex="1">
          <mxGeometry x="373" y="591" width="30" height="30" as="geometry" />
        </mxCell>
        <mxCell id="YZdOTx-LG6S0MW3HR8WH-22" value="a - целое число" style="text;html=1;align=center;verticalAlign=middle;resizable=0;points=[];autosize=1;strokeColor=none;fillColor=none;" parent="1" vertex="1">
          <mxGeometry x="556" y="269" width="110" height="30" as="geometry" />
        </mxCell>
        <mxCell id="YZdOTx-LG6S0MW3HR8WH-27" style="edgeStyle=orthogonalEdgeStyle;rounded=0;orthogonalLoop=1;jettySize=auto;html=1;entryX=0.5;entryY=0;entryDx=0;entryDy=0;" parent="1" source="YZdOTx-LG6S0MW3HR8WH-23" target="YZdOTx-LG6S0MW3HR8WH-26" edge="1">
          <mxGeometry relative="1" as="geometry" />
        </mxCell>
        <mxCell id="YZdOTx-LG6S0MW3HR8WH-28" style="edgeStyle=orthogonalEdgeStyle;rounded=0;orthogonalLoop=1;jettySize=auto;html=1;entryX=0.5;entryY=0;entryDx=0;entryDy=0;" parent="1" source="YZdOTx-LG6S0MW3HR8WH-23" target="YZdOTx-LG6S0MW3HR8WH-25" edge="1">
          <mxGeometry relative="1" as="geometry" />
        </mxCell>
        <mxCell id="YZdOTx-LG6S0MW3HR8WH-23" value="a &amp;gt; 0" style="rhombus;whiteSpace=wrap;html=1;" parent="1" vertex="1">
          <mxGeometry x="365" y="334" width="110" height="70" as="geometry" />
        </mxCell>
        <mxCell id="YZdOTx-LG6S0MW3HR8WH-29" style="edgeStyle=orthogonalEdgeStyle;rounded=0;orthogonalLoop=1;jettySize=auto;html=1;entryX=0.5;entryY=0;entryDx=0;entryDy=0;" parent="1" source="YZdOTx-LG6S0MW3HR8WH-25" target="YZdOTx-LG6S0MW3HR8WH-7" edge="1">
          <mxGeometry relative="1" as="geometry" />
        </mxCell>
        <mxCell id="YZdOTx-LG6S0MW3HR8WH-25" value="a = a + 30&amp;nbsp;" style="rounded=0;whiteSpace=wrap;html=1;" parent="1" vertex="1">
          <mxGeometry x="480" y="394" width="120" height="60" as="geometry" />
        </mxCell>
        <mxCell id="YZdOTx-LG6S0MW3HR8WH-30" style="edgeStyle=orthogonalEdgeStyle;rounded=0;orthogonalLoop=1;jettySize=auto;html=1;entryX=0.5;entryY=0;entryDx=0;entryDy=0;" parent="1" source="YZdOTx-LG6S0MW3HR8WH-26" target="YZdOTx-LG6S0MW3HR8WH-7" edge="1">
          <mxGeometry relative="1" as="geometry" />
        </mxCell>
        <mxCell id="YZdOTx-LG6S0MW3HR8WH-26" value="a = a - 10" style="rounded=0;whiteSpace=wrap;html=1;" parent="1" vertex="1">
          <mxGeometry x="240" y="394" width="120" height="60" as="geometry" />
        </mxCell>
        <mxCell id="YZdOTx-LG6S0MW3HR8WH-31" value="Да" style="text;html=1;align=center;verticalAlign=middle;resizable=0;points=[];autosize=1;strokeColor=none;fillColor=none;" parent="1" vertex="1">
          <mxGeometry x="316" y="334" width="40" height="30" as="geometry" />
        </mxCell>
        <mxCell id="YZdOTx-LG6S0MW3HR8WH-32" value="Нет" style="text;html=1;align=center;verticalAlign=middle;resizable=0;points=[];autosize=1;strokeColor=none;fillColor=none;" parent="1" vertex="1">
          <mxGeometry x="486" y="334" width="40" height="30" as="geometry" />
        </mxCell>
        <mxCell id="QKc7ULMAq8d7AGqLOb40-1" value="3" style="text;html=1;align=center;verticalAlign=middle;resizable=0;points=[];autosize=1;strokeColor=none;fillColor=none;labelBackgroundColor=default;" parent="1" vertex="1">
          <mxGeometry x="373" y="340" width="30" height="30" as="geometry" />
        </mxCell>
        <mxCell id="T4kvSXA1ONXZ5-rfE8Fh-1" value="4" style="text;html=1;align=center;verticalAlign=middle;resizable=0;points=[];autosize=1;strokeColor=none;fillColor=none;labelBackgroundColor=default;" parent="1" vertex="1">
          <mxGeometry x="240" y="379" width="30" height="30" as="geometry" />
        </mxCell>
        <mxCell id="T4kvSXA1ONXZ5-rfE8Fh-2" value="5" style="text;html=1;align=center;verticalAlign=middle;resizable=0;points=[];autosize=1;strokeColor=none;fillColor=none;labelBackgroundColor=default;" parent="1" vertex="1">
          <mxGeometry x="480" y="379" width="30" height="30" as="geometry" />
        </mxCell>
        <mxCell id="T4kvSXA1ONXZ5-rfE8Fh-3" value="6" style="text;html=1;align=center;verticalAlign=middle;resizable=0;points=[];autosize=1;strokeColor=none;fillColor=none;labelBackgroundColor=default;" parent="1" vertex="1">
          <mxGeometry x="373" y="500" width="30" height="30" as="geometry" />
        </mxCell>
        <mxCell id="LjyFrUHD0NPqEXV-XhHR-1" value="&lt;font style=&quot;font-size: 18px;&quot;&gt;Пирогов Денис 2 ИСП&lt;/font&gt;" style="text;html=1;align=center;verticalAlign=middle;resizable=0;points=[];autosize=1;strokeColor=none;fillColor=none;" vertex="1" parent="1">
          <mxGeometry width="210" height="40" as="geometry" />
        </mxCell>
        <mxCell id="LjyFrUHD0NPqEXV-XhHR-2" value="&lt;font style=&quot;font-size: 16px;&quot;&gt;№2&lt;/font&gt;&lt;div style=&quot;font-size: 16px;&quot;&gt;&lt;div&gt;Дано целое число. Если оно является положительным, то вычесть из него 10; в&lt;/div&gt;&lt;div&gt;противном случае прибавить к нему 30. Вывести полученное число.&lt;/div&gt;&lt;/div&gt;" style="text;html=1;align=center;verticalAlign=middle;resizable=0;points=[];autosize=1;strokeColor=none;fillColor=none;" vertex="1" parent="1">
          <mxGeometry x="104" y="50" width="620" height="70" as="geometry" />
        </mxCell>
      </root>
    </mxGraphModel>
  </diagram>
  <diagram id="YerdHr4esRdjdB4NBOHD" name="вариант 2 задание 4">
    <mxGraphModel dx="1393" dy="766" grid="1" gridSize="10" guides="1" tooltips="1" connect="1" arrows="1" fold="1" page="1" pageScale="1" pageWidth="827" pageHeight="1169" math="0" shadow="0">
      <root>
        <mxCell id="0" />
        <mxCell id="1" parent="0" />
        <mxCell id="VfGQyBY4fOgNn1lcRGgt-11" value="" style="rounded=0;whiteSpace=wrap;html=1;" parent="1" vertex="1">
          <mxGeometry x="233" y="562.25" width="106" height="39" as="geometry" />
        </mxCell>
        <mxCell id="VfGQyBY4fOgNn1lcRGgt-10" value="" style="rounded=0;whiteSpace=wrap;html=1;" parent="1" vertex="1">
          <mxGeometry x="153" y="562.5" width="80" height="39" as="geometry" />
        </mxCell>
        <mxCell id="VfGQyBY4fOgNn1lcRGgt-9" value="" style="rounded=0;whiteSpace=wrap;html=1;" parent="1" vertex="1">
          <mxGeometry x="93" y="562.5" width="60" height="38.75" as="geometry" />
        </mxCell>
        <mxCell id="VfGQyBY4fOgNn1lcRGgt-8" value="" style="rounded=0;whiteSpace=wrap;html=1;" parent="1" vertex="1">
          <mxGeometry x="13" y="562.5" width="80" height="38.75" as="geometry" />
        </mxCell>
        <mxCell id="X8t2LBlpGKkPNKpJRVLH-1" style="edgeStyle=orthogonalEdgeStyle;rounded=0;orthogonalLoop=1;jettySize=auto;html=1;exitX=0.5;exitY=1;exitDx=0;exitDy=0;entryX=0.5;entryY=0;entryDx=0;entryDy=0;" parent="1" source="X8t2LBlpGKkPNKpJRVLH-2" target="X8t2LBlpGKkPNKpJRVLH-5" edge="1">
          <mxGeometry relative="1" as="geometry" />
        </mxCell>
        <mxCell id="X8t2LBlpGKkPNKpJRVLH-2" value="Начало" style="rounded=1;whiteSpace=wrap;html=1;arcSize=50;" parent="1" vertex="1">
          <mxGeometry x="364" y="174" width="120" height="60" as="geometry" />
        </mxCell>
        <mxCell id="X8t2LBlpGKkPNKpJRVLH-3" value="Конец" style="rounded=1;whiteSpace=wrap;html=1;arcSize=50;" parent="1" vertex="1">
          <mxGeometry x="364" y="634" width="120" height="60" as="geometry" />
        </mxCell>
        <mxCell id="X8t2LBlpGKkPNKpJRVLH-4" style="edgeStyle=orthogonalEdgeStyle;rounded=0;orthogonalLoop=1;jettySize=auto;html=1;exitX=0.5;exitY=1;exitDx=0;exitDy=0;entryX=0.5;entryY=0;entryDx=0;entryDy=0;" parent="1" source="X8t2LBlpGKkPNKpJRVLH-5" target="X8t2LBlpGKkPNKpJRVLH-16" edge="1">
          <mxGeometry relative="1" as="geometry" />
        </mxCell>
        <mxCell id="X8t2LBlpGKkPNKpJRVLH-5" value="Ввод: x" style="shape=parallelogram;perimeter=parallelogramPerimeter;whiteSpace=wrap;html=1;fixedSize=1;" parent="1" vertex="1">
          <mxGeometry x="364" y="254" width="120" height="60" as="geometry" />
        </mxCell>
        <mxCell id="X8t2LBlpGKkPNKpJRVLH-6" style="edgeStyle=orthogonalEdgeStyle;rounded=0;orthogonalLoop=1;jettySize=auto;html=1;exitX=0.5;exitY=1;exitDx=0;exitDy=0;entryX=0.5;entryY=0;entryDx=0;entryDy=0;" parent="1" source="X8t2LBlpGKkPNKpJRVLH-7" target="X8t2LBlpGKkPNKpJRVLH-3" edge="1">
          <mxGeometry relative="1" as="geometry" />
        </mxCell>
        <mxCell id="X8t2LBlpGKkPNKpJRVLH-7" value="Вывод: F(x)" style="shape=parallelogram;perimeter=parallelogramPerimeter;whiteSpace=wrap;html=1;fixedSize=1;" parent="1" vertex="1">
          <mxGeometry x="364" y="544" width="120" height="60" as="geometry" />
        </mxCell>
        <mxCell id="X8t2LBlpGKkPNKpJRVLH-8" value="" style="strokeWidth=2;html=1;shape=mxgraph.flowchart.annotation_2;align=left;labelPosition=right;pointerEvents=1;" parent="1" vertex="1">
          <mxGeometry x="530" y="256.5" width="50" height="55" as="geometry" />
        </mxCell>
        <mxCell id="X8t2LBlpGKkPNKpJRVLH-9" value="" style="endArrow=none;dashed=1;html=1;rounded=0;exitX=1;exitY=0.5;exitDx=0;exitDy=0;entryX=0;entryY=0.5;entryDx=0;entryDy=0;entryPerimeter=0;" parent="1" source="X8t2LBlpGKkPNKpJRVLH-5" target="X8t2LBlpGKkPNKpJRVLH-8" edge="1">
          <mxGeometry width="50" height="50" relative="1" as="geometry">
            <mxPoint x="490" y="344" as="sourcePoint" />
            <mxPoint x="540" y="294" as="targetPoint" />
          </mxGeometry>
        </mxCell>
        <mxCell id="X8t2LBlpGKkPNKpJRVLH-10" value="1" style="text;html=1;align=center;verticalAlign=middle;resizable=0;points=[];autosize=1;strokeColor=none;fillColor=none;labelBackgroundColor=default;" parent="1" vertex="1">
          <mxGeometry x="377" y="160" width="30" height="30" as="geometry" />
        </mxCell>
        <mxCell id="X8t2LBlpGKkPNKpJRVLH-11" value="2" style="text;html=1;align=center;verticalAlign=middle;resizable=0;points=[];autosize=1;strokeColor=none;fillColor=none;labelBackgroundColor=default;" parent="1" vertex="1">
          <mxGeometry x="377" y="239" width="30" height="30" as="geometry" />
        </mxCell>
        <mxCell id="X8t2LBlpGKkPNKpJRVLH-13" value="x - целое число" style="text;html=1;align=center;verticalAlign=middle;resizable=0;points=[];autosize=1;strokeColor=none;fillColor=none;" parent="1" vertex="1">
          <mxGeometry x="560" y="269" width="110" height="30" as="geometry" />
        </mxCell>
        <mxCell id="X8t2LBlpGKkPNKpJRVLH-31" style="edgeStyle=orthogonalEdgeStyle;rounded=0;orthogonalLoop=1;jettySize=auto;html=1;entryX=0.5;entryY=0;entryDx=0;entryDy=0;" parent="1" source="X8t2LBlpGKkPNKpJRVLH-16" target="X8t2LBlpGKkPNKpJRVLH-30" edge="1">
          <mxGeometry relative="1" as="geometry" />
        </mxCell>
        <mxCell id="TA_IFIlmfwQ1r0TLr6vP-2" style="edgeStyle=orthogonalEdgeStyle;rounded=0;orthogonalLoop=1;jettySize=auto;html=1;exitX=0.5;exitY=1;exitDx=0;exitDy=0;entryX=0.5;entryY=0;entryDx=0;entryDy=0;" parent="1" source="X8t2LBlpGKkPNKpJRVLH-16" target="X8t2LBlpGKkPNKpJRVLH-28" edge="1">
          <mxGeometry relative="1" as="geometry" />
        </mxCell>
        <mxCell id="X8t2LBlpGKkPNKpJRVLH-16" value="x &amp;gt;= 3" style="rhombus;whiteSpace=wrap;html=1;" parent="1" vertex="1">
          <mxGeometry x="369" y="334" width="110" height="70" as="geometry" />
        </mxCell>
        <mxCell id="X8t2LBlpGKkPNKpJRVLH-23" value="3" style="text;html=1;align=center;verticalAlign=middle;resizable=0;points=[];autosize=1;strokeColor=none;fillColor=none;labelBackgroundColor=default;" parent="1" vertex="1">
          <mxGeometry x="377" y="339" width="30" height="30" as="geometry" />
        </mxCell>
        <mxCell id="X8t2LBlpGKkPNKpJRVLH-37" style="edgeStyle=orthogonalEdgeStyle;rounded=0;orthogonalLoop=1;jettySize=auto;html=1;exitX=0.5;exitY=1;exitDx=0;exitDy=0;entryX=0.5;entryY=0;entryDx=0;entryDy=0;" parent="1" source="X8t2LBlpGKkPNKpJRVLH-28" target="X8t2LBlpGKkPNKpJRVLH-7" edge="1">
          <mxGeometry relative="1" as="geometry" />
        </mxCell>
        <mxCell id="X8t2LBlpGKkPNKpJRVLH-28" value="F(x) = x / x^3 - 27" style="rounded=0;whiteSpace=wrap;html=1;" parent="1" vertex="1">
          <mxGeometry x="364" y="434" width="120" height="60" as="geometry" />
        </mxCell>
        <mxCell id="X8t2LBlpGKkPNKpJRVLH-35" style="edgeStyle=orthogonalEdgeStyle;rounded=0;orthogonalLoop=1;jettySize=auto;html=1;exitX=0.5;exitY=1;exitDx=0;exitDy=0;entryX=0.5;entryY=0;entryDx=0;entryDy=0;" parent="1" source="X8t2LBlpGKkPNKpJRVLH-30" target="X8t2LBlpGKkPNKpJRVLH-7" edge="1">
          <mxGeometry relative="1" as="geometry" />
        </mxCell>
        <mxCell id="X8t2LBlpGKkPNKpJRVLH-30" value="F(x) = 2*x^2+5*x-7" style="rounded=0;whiteSpace=wrap;html=1;" parent="1" vertex="1">
          <mxGeometry x="200" y="434" width="120" height="60" as="geometry" />
        </mxCell>
        <mxCell id="X8t2LBlpGKkPNKpJRVLH-40" value="Да" style="text;html=1;align=center;verticalAlign=middle;resizable=0;points=[];autosize=1;strokeColor=none;fillColor=none;" parent="1" vertex="1">
          <mxGeometry x="324" y="339" width="40" height="30" as="geometry" />
        </mxCell>
        <mxCell id="TA_IFIlmfwQ1r0TLr6vP-3" value="Нет" style="text;html=1;align=center;verticalAlign=middle;resizable=0;points=[];autosize=1;strokeColor=none;fillColor=none;" parent="1" vertex="1">
          <mxGeometry x="430" y="404" width="40" height="30" as="geometry" />
        </mxCell>
        <mxCell id="hTj91jDt00fLiWA1VQA2-1" value="5" style="text;html=1;align=center;verticalAlign=middle;resizable=0;points=[];autosize=1;strokeColor=none;fillColor=none;labelBackgroundColor=default;" parent="1" vertex="1">
          <mxGeometry x="377" y="419" width="30" height="30" as="geometry" />
        </mxCell>
        <mxCell id="hTj91jDt00fLiWA1VQA2-2" value="4" style="text;html=1;align=center;verticalAlign=middle;resizable=0;points=[];autosize=1;strokeColor=none;fillColor=none;labelBackgroundColor=default;" parent="1" vertex="1">
          <mxGeometry x="200" y="419" width="30" height="30" as="geometry" />
        </mxCell>
        <mxCell id="hTj91jDt00fLiWA1VQA2-3" value="6" style="text;html=1;align=center;verticalAlign=middle;resizable=0;points=[];autosize=1;strokeColor=none;fillColor=none;labelBackgroundColor=default;" parent="1" vertex="1">
          <mxGeometry x="377" y="529" width="30" height="30" as="geometry" />
        </mxCell>
        <mxCell id="hTj91jDt00fLiWA1VQA2-4" value="7" style="text;html=1;align=center;verticalAlign=middle;resizable=0;points=[];autosize=1;strokeColor=none;fillColor=none;labelBackgroundColor=default;" parent="1" vertex="1">
          <mxGeometry x="377" y="619" width="30" height="30" as="geometry" />
        </mxCell>
        <mxCell id="Vr0D38BjUfFB_hcQnzDc-1" value="" style="strokeWidth=2;html=1;shape=mxgraph.flowchart.annotation_2;align=left;labelPosition=right;pointerEvents=1;" parent="1" vertex="1">
          <mxGeometry x="530" y="436.5" width="50" height="55" as="geometry" />
        </mxCell>
        <mxCell id="Vr0D38BjUfFB_hcQnzDc-2" value="" style="endArrow=none;dashed=1;html=1;rounded=0;entryX=0;entryY=0.5;entryDx=0;entryDy=0;entryPerimeter=0;exitX=1;exitY=0.5;exitDx=0;exitDy=0;" parent="1" source="X8t2LBlpGKkPNKpJRVLH-28" target="Vr0D38BjUfFB_hcQnzDc-1" edge="1">
          <mxGeometry width="50" height="50" relative="1" as="geometry">
            <mxPoint x="510" y="514" as="sourcePoint" />
            <mxPoint x="545" y="474" as="targetPoint" />
          </mxGeometry>
        </mxCell>
        <mxCell id="Vr0D38BjUfFB_hcQnzDc-3" value="F(x) - функция" style="text;html=1;align=center;verticalAlign=middle;resizable=0;points=[];autosize=1;strokeColor=none;fillColor=none;" parent="1" vertex="1">
          <mxGeometry x="560" y="449" width="100" height="30" as="geometry" />
        </mxCell>
        <mxCell id="VfGQyBY4fOgNn1lcRGgt-1" value="&lt;font style=&quot;font-size: 16px;&quot;&gt;x&lt;/font&gt;" style="text;html=1;strokeColor=none;fillColor=none;align=center;verticalAlign=middle;whiteSpace=wrap;rounded=0;" parent="1" vertex="1">
          <mxGeometry x="93" y="562.5" width="60" height="40" as="geometry" />
        </mxCell>
        <mxCell id="VfGQyBY4fOgNn1lcRGgt-2" value="&lt;font style=&quot;font-size: 16px;&quot;&gt;шаг&lt;/font&gt;" style="text;html=1;strokeColor=none;fillColor=none;align=center;verticalAlign=middle;whiteSpace=wrap;rounded=0;" parent="1" vertex="1">
          <mxGeometry x="13" y="561.25" width="80" height="40" as="geometry" />
        </mxCell>
        <mxCell id="VfGQyBY4fOgNn1lcRGgt-6" value="&lt;font style=&quot;font-size: 16px;&quot;&gt;условие&lt;/font&gt;" style="text;html=1;strokeColor=none;fillColor=none;align=center;verticalAlign=middle;whiteSpace=wrap;rounded=0;" parent="1" vertex="1">
          <mxGeometry x="153" y="560" width="80" height="42.5" as="geometry" />
        </mxCell>
        <mxCell id="VfGQyBY4fOgNn1lcRGgt-7" value="&lt;font style=&quot;font-size: 16px;&quot;&gt;действие&lt;/font&gt;" style="text;html=1;strokeColor=none;fillColor=none;align=center;verticalAlign=middle;whiteSpace=wrap;rounded=0;" parent="1" vertex="1">
          <mxGeometry x="233" y="560" width="106" height="41.75" as="geometry" />
        </mxCell>
        <mxCell id="VfGQyBY4fOgNn1lcRGgt-12" value="" style="rounded=0;whiteSpace=wrap;html=1;" parent="1" vertex="1">
          <mxGeometry x="233" y="601.5" width="106" height="39" as="geometry" />
        </mxCell>
        <mxCell id="VfGQyBY4fOgNn1lcRGgt-13" value="" style="rounded=0;whiteSpace=wrap;html=1;" parent="1" vertex="1">
          <mxGeometry x="153" y="601.75" width="80" height="39" as="geometry" />
        </mxCell>
        <mxCell id="VfGQyBY4fOgNn1lcRGgt-14" value="4" style="rounded=0;whiteSpace=wrap;html=1;" parent="1" vertex="1">
          <mxGeometry x="93" y="601.75" width="60" height="38.75" as="geometry" />
        </mxCell>
        <mxCell id="VfGQyBY4fOgNn1lcRGgt-15" value="1" style="rounded=0;whiteSpace=wrap;html=1;" parent="1" vertex="1">
          <mxGeometry x="13" y="601.75" width="80" height="38.75" as="geometry" />
        </mxCell>
        <mxCell id="VfGQyBY4fOgNn1lcRGgt-20" value="" style="rounded=0;whiteSpace=wrap;html=1;" parent="1" vertex="1">
          <mxGeometry x="233" y="640.75" width="106" height="39" as="geometry" />
        </mxCell>
        <mxCell id="VfGQyBY4fOgNn1lcRGgt-21" value="x &amp;gt;= 3 да" style="rounded=0;whiteSpace=wrap;html=1;" parent="1" vertex="1">
          <mxGeometry x="153" y="641" width="80" height="39" as="geometry" />
        </mxCell>
        <mxCell id="VfGQyBY4fOgNn1lcRGgt-22" value="" style="rounded=0;whiteSpace=wrap;html=1;" parent="1" vertex="1">
          <mxGeometry x="93" y="641" width="60" height="38.75" as="geometry" />
        </mxCell>
        <mxCell id="VfGQyBY4fOgNn1lcRGgt-23" value="2" style="rounded=0;whiteSpace=wrap;html=1;" parent="1" vertex="1">
          <mxGeometry x="13" y="641" width="80" height="38.75" as="geometry" />
        </mxCell>
        <mxCell id="VfGQyBY4fOgNn1lcRGgt-24" value="F(x)=2*4^2+5*4-7" style="rounded=0;whiteSpace=wrap;html=1;" parent="1" vertex="1">
          <mxGeometry x="233" y="680" width="106" height="39" as="geometry" />
        </mxCell>
        <mxCell id="VfGQyBY4fOgNn1lcRGgt-25" value="" style="rounded=0;whiteSpace=wrap;html=1;" parent="1" vertex="1">
          <mxGeometry x="153" y="680.25" width="80" height="39" as="geometry" />
        </mxCell>
        <mxCell id="VfGQyBY4fOgNn1lcRGgt-26" value="" style="rounded=0;whiteSpace=wrap;html=1;" parent="1" vertex="1">
          <mxGeometry x="93" y="680.25" width="60" height="38.75" as="geometry" />
        </mxCell>
        <mxCell id="VfGQyBY4fOgNn1lcRGgt-27" value="3" style="rounded=0;whiteSpace=wrap;html=1;" parent="1" vertex="1">
          <mxGeometry x="13" y="680.25" width="80" height="38.75" as="geometry" />
        </mxCell>
        <mxCell id="VfGQyBY4fOgNn1lcRGgt-49" value="" style="rounded=0;whiteSpace=wrap;html=1;" parent="1" vertex="1">
          <mxGeometry x="233" y="742.25" width="126" height="39" as="geometry" />
        </mxCell>
        <mxCell id="VfGQyBY4fOgNn1lcRGgt-50" value="" style="rounded=0;whiteSpace=wrap;html=1;" parent="1" vertex="1">
          <mxGeometry x="153" y="742.5" width="80" height="39" as="geometry" />
        </mxCell>
        <mxCell id="VfGQyBY4fOgNn1lcRGgt-51" value="" style="rounded=0;whiteSpace=wrap;html=1;" parent="1" vertex="1">
          <mxGeometry x="93" y="742.5" width="60" height="38.75" as="geometry" />
        </mxCell>
        <mxCell id="VfGQyBY4fOgNn1lcRGgt-52" value="" style="rounded=0;whiteSpace=wrap;html=1;" parent="1" vertex="1">
          <mxGeometry x="13" y="742.5" width="80" height="38.75" as="geometry" />
        </mxCell>
        <mxCell id="VfGQyBY4fOgNn1lcRGgt-53" value="&lt;font style=&quot;font-size: 16px;&quot;&gt;x&lt;/font&gt;" style="text;html=1;strokeColor=none;fillColor=none;align=center;verticalAlign=middle;whiteSpace=wrap;rounded=0;" parent="1" vertex="1">
          <mxGeometry x="93" y="742.5" width="60" height="40" as="geometry" />
        </mxCell>
        <mxCell id="VfGQyBY4fOgNn1lcRGgt-54" value="&lt;font style=&quot;font-size: 16px;&quot;&gt;шаг&lt;/font&gt;" style="text;html=1;strokeColor=none;fillColor=none;align=center;verticalAlign=middle;whiteSpace=wrap;rounded=0;" parent="1" vertex="1">
          <mxGeometry x="13" y="741.25" width="80" height="40" as="geometry" />
        </mxCell>
        <mxCell id="VfGQyBY4fOgNn1lcRGgt-55" value="&lt;font style=&quot;font-size: 16px;&quot;&gt;условие&lt;/font&gt;" style="text;html=1;strokeColor=none;fillColor=none;align=center;verticalAlign=middle;whiteSpace=wrap;rounded=0;" parent="1" vertex="1">
          <mxGeometry x="153" y="740" width="80" height="42.5" as="geometry" />
        </mxCell>
        <mxCell id="VfGQyBY4fOgNn1lcRGgt-56" value="&lt;font style=&quot;font-size: 16px;&quot;&gt;действие&lt;/font&gt;" style="text;html=1;strokeColor=none;fillColor=none;align=center;verticalAlign=middle;whiteSpace=wrap;rounded=0;" parent="1" vertex="1">
          <mxGeometry x="232" y="740" width="126" height="41" as="geometry" />
        </mxCell>
        <mxCell id="VfGQyBY4fOgNn1lcRGgt-57" value="" style="rounded=0;whiteSpace=wrap;html=1;" parent="1" vertex="1">
          <mxGeometry x="233" y="781.5" width="126" height="39" as="geometry" />
        </mxCell>
        <mxCell id="VfGQyBY4fOgNn1lcRGgt-58" value="" style="rounded=0;whiteSpace=wrap;html=1;" parent="1" vertex="1">
          <mxGeometry x="153" y="781.75" width="80" height="39" as="geometry" />
        </mxCell>
        <mxCell id="VfGQyBY4fOgNn1lcRGgt-59" value="- 7/2" style="rounded=0;whiteSpace=wrap;html=1;" parent="1" vertex="1">
          <mxGeometry x="93" y="781.75" width="60" height="38.75" as="geometry" />
        </mxCell>
        <mxCell id="VfGQyBY4fOgNn1lcRGgt-60" value="1" style="rounded=0;whiteSpace=wrap;html=1;" parent="1" vertex="1">
          <mxGeometry x="13" y="781.75" width="80" height="38.75" as="geometry" />
        </mxCell>
        <mxCell id="VfGQyBY4fOgNn1lcRGgt-61" value="" style="rounded=0;whiteSpace=wrap;html=1;" parent="1" vertex="1">
          <mxGeometry x="233" y="820.75" width="126" height="39" as="geometry" />
        </mxCell>
        <mxCell id="VfGQyBY4fOgNn1lcRGgt-62" value="x &amp;gt;= 3 нет" style="rounded=0;whiteSpace=wrap;html=1;" parent="1" vertex="1">
          <mxGeometry x="153" y="821" width="80" height="39" as="geometry" />
        </mxCell>
        <mxCell id="VfGQyBY4fOgNn1lcRGgt-63" value="" style="rounded=0;whiteSpace=wrap;html=1;" parent="1" vertex="1">
          <mxGeometry x="93" y="821" width="60" height="38.75" as="geometry" />
        </mxCell>
        <mxCell id="VfGQyBY4fOgNn1lcRGgt-64" value="2" style="rounded=0;whiteSpace=wrap;html=1;" parent="1" vertex="1">
          <mxGeometry x="13" y="821" width="80" height="38.75" as="geometry" />
        </mxCell>
        <mxCell id="VfGQyBY4fOgNn1lcRGgt-65" value="F(x)=(-7/2)/(-7/2)^3-27" style="rounded=0;whiteSpace=wrap;html=1;" parent="1" vertex="1">
          <mxGeometry x="233" y="860" width="126" height="39" as="geometry" />
        </mxCell>
        <mxCell id="VfGQyBY4fOgNn1lcRGgt-66" value="" style="rounded=0;whiteSpace=wrap;html=1;" parent="1" vertex="1">
          <mxGeometry x="153" y="860.25" width="80" height="39" as="geometry" />
        </mxCell>
        <mxCell id="VfGQyBY4fOgNn1lcRGgt-67" value="" style="rounded=0;whiteSpace=wrap;html=1;" parent="1" vertex="1">
          <mxGeometry x="93" y="860.25" width="60" height="38.75" as="geometry" />
        </mxCell>
        <mxCell id="VfGQyBY4fOgNn1lcRGgt-68" value="3" style="rounded=0;whiteSpace=wrap;html=1;" parent="1" vertex="1">
          <mxGeometry x="13" y="860.25" width="80" height="38.75" as="geometry" />
        </mxCell>
        <mxCell id="VfGQyBY4fOgNn1lcRGgt-69" value="" style="rounded=0;whiteSpace=wrap;html=1;" parent="1" vertex="1">
          <mxGeometry x="589" y="744.75" width="106" height="39" as="geometry" />
        </mxCell>
        <mxCell id="VfGQyBY4fOgNn1lcRGgt-70" value="" style="rounded=0;whiteSpace=wrap;html=1;" parent="1" vertex="1">
          <mxGeometry x="509" y="745" width="80" height="39" as="geometry" />
        </mxCell>
        <mxCell id="VfGQyBY4fOgNn1lcRGgt-71" value="" style="rounded=0;whiteSpace=wrap;html=1;" parent="1" vertex="1">
          <mxGeometry x="449" y="745" width="60" height="38.75" as="geometry" />
        </mxCell>
        <mxCell id="VfGQyBY4fOgNn1lcRGgt-72" value="" style="rounded=0;whiteSpace=wrap;html=1;" parent="1" vertex="1">
          <mxGeometry x="369" y="745" width="80" height="38.75" as="geometry" />
        </mxCell>
        <mxCell id="VfGQyBY4fOgNn1lcRGgt-73" value="&lt;font style=&quot;font-size: 16px;&quot;&gt;x&lt;/font&gt;" style="text;html=1;strokeColor=none;fillColor=none;align=center;verticalAlign=middle;whiteSpace=wrap;rounded=0;" parent="1" vertex="1">
          <mxGeometry x="449" y="745" width="60" height="40" as="geometry" />
        </mxCell>
        <mxCell id="VfGQyBY4fOgNn1lcRGgt-74" value="&lt;font style=&quot;font-size: 16px;&quot;&gt;шаг&lt;/font&gt;" style="text;html=1;strokeColor=none;fillColor=none;align=center;verticalAlign=middle;whiteSpace=wrap;rounded=0;" parent="1" vertex="1">
          <mxGeometry x="369" y="743.75" width="80" height="40" as="geometry" />
        </mxCell>
        <mxCell id="VfGQyBY4fOgNn1lcRGgt-75" value="&lt;font style=&quot;font-size: 16px;&quot;&gt;условие&lt;/font&gt;" style="text;html=1;strokeColor=none;fillColor=none;align=center;verticalAlign=middle;whiteSpace=wrap;rounded=0;" parent="1" vertex="1">
          <mxGeometry x="509" y="742.5" width="80" height="42.5" as="geometry" />
        </mxCell>
        <mxCell id="VfGQyBY4fOgNn1lcRGgt-76" value="&lt;font style=&quot;font-size: 16px;&quot;&gt;действие&lt;/font&gt;" style="text;html=1;strokeColor=none;fillColor=none;align=center;verticalAlign=middle;whiteSpace=wrap;rounded=0;" parent="1" vertex="1">
          <mxGeometry x="589" y="742.5" width="106" height="41.75" as="geometry" />
        </mxCell>
        <mxCell id="VfGQyBY4fOgNn1lcRGgt-77" value="" style="rounded=0;whiteSpace=wrap;html=1;" parent="1" vertex="1">
          <mxGeometry x="589" y="784" width="106" height="39" as="geometry" />
        </mxCell>
        <mxCell id="VfGQyBY4fOgNn1lcRGgt-78" value="" style="rounded=0;whiteSpace=wrap;html=1;" parent="1" vertex="1">
          <mxGeometry x="509" y="784.25" width="80" height="39" as="geometry" />
        </mxCell>
        <mxCell id="VfGQyBY4fOgNn1lcRGgt-79" value="9" style="rounded=0;whiteSpace=wrap;html=1;" parent="1" vertex="1">
          <mxGeometry x="449" y="784.25" width="60" height="38.75" as="geometry" />
        </mxCell>
        <mxCell id="VfGQyBY4fOgNn1lcRGgt-80" value="1" style="rounded=0;whiteSpace=wrap;html=1;" parent="1" vertex="1">
          <mxGeometry x="369" y="784.25" width="80" height="38.75" as="geometry" />
        </mxCell>
        <mxCell id="VfGQyBY4fOgNn1lcRGgt-81" value="" style="rounded=0;whiteSpace=wrap;html=1;" parent="1" vertex="1">
          <mxGeometry x="589" y="823.25" width="106" height="39" as="geometry" />
        </mxCell>
        <mxCell id="VfGQyBY4fOgNn1lcRGgt-82" value="x &amp;gt;= 3 да" style="rounded=0;whiteSpace=wrap;html=1;" parent="1" vertex="1">
          <mxGeometry x="509" y="823.5" width="80" height="39" as="geometry" />
        </mxCell>
        <mxCell id="VfGQyBY4fOgNn1lcRGgt-83" value="" style="rounded=0;whiteSpace=wrap;html=1;" parent="1" vertex="1">
          <mxGeometry x="449" y="823.5" width="60" height="38.75" as="geometry" />
        </mxCell>
        <mxCell id="VfGQyBY4fOgNn1lcRGgt-84" value="2" style="rounded=0;whiteSpace=wrap;html=1;" parent="1" vertex="1">
          <mxGeometry x="369" y="823.5" width="80" height="38.75" as="geometry" />
        </mxCell>
        <mxCell id="VfGQyBY4fOgNn1lcRGgt-85" value="F(x)=2*9^2+5*9-7" style="rounded=0;whiteSpace=wrap;html=1;" parent="1" vertex="1">
          <mxGeometry x="589" y="862.5" width="106" height="39" as="geometry" />
        </mxCell>
        <mxCell id="VfGQyBY4fOgNn1lcRGgt-86" value="" style="rounded=0;whiteSpace=wrap;html=1;" parent="1" vertex="1">
          <mxGeometry x="509" y="862.75" width="80" height="39" as="geometry" />
        </mxCell>
        <mxCell id="VfGQyBY4fOgNn1lcRGgt-87" value="" style="rounded=0;whiteSpace=wrap;html=1;" parent="1" vertex="1">
          <mxGeometry x="449" y="862.75" width="60" height="38.75" as="geometry" />
        </mxCell>
        <mxCell id="VfGQyBY4fOgNn1lcRGgt-88" value="3" style="rounded=0;whiteSpace=wrap;html=1;" parent="1" vertex="1">
          <mxGeometry x="369" y="862.75" width="80" height="38.75" as="geometry" />
        </mxCell>
        <mxCell id="jSZTgJTwYzZbFmF-2Jm9-1" value="&lt;font style=&quot;font-size: 18px;&quot;&gt;Пирогов Денис 2 ИСП&lt;/font&gt;" style="text;html=1;align=center;verticalAlign=middle;resizable=0;points=[];autosize=1;strokeColor=none;fillColor=none;" vertex="1" parent="1">
          <mxGeometry width="210" height="40" as="geometry" />
        </mxCell>
        <mxCell id="jSZTgJTwYzZbFmF-2Jm9-2" value="&lt;font style=&quot;font-size: 16px;&quot;&gt;№4&lt;/font&gt;&lt;div style=&quot;font-size: 16px;&quot;&gt;&lt;div style=&quot;&quot;&gt;Построить блок – схему, позволяющую вычислить значение функции:&lt;/div&gt;&lt;div style=&quot;&quot;&gt;&lt;span style=&quot;&quot;&gt;F(x) = {&lt;/span&gt;&lt;span style=&quot;background-color: initial;&quot;&gt;2x^&lt;/span&gt;&lt;span style=&quot;background-color: initial;&quot;&gt;2 + 5x − 7, x ≥ 3&lt;/span&gt;&lt;/div&gt;&lt;div style=&quot;&quot;&gt;&lt;span style=&quot;&quot;&gt;&amp;nbsp; &amp;nbsp; &amp;nbsp; &amp;nbsp; {x /&amp;nbsp;&lt;/span&gt;&lt;span style=&quot;background-color: initial;&quot;&gt;x^&lt;/span&gt;&lt;span style=&quot;background-color: initial;&quot;&gt;3 − 27, x &amp;lt; 3&lt;/span&gt;&lt;/div&gt;&lt;div style=&quot;&quot;&gt;&lt;span style=&quot;&quot;&gt;&lt;br&gt;&lt;/span&gt;&lt;/div&gt;&lt;div style=&quot;&quot;&gt;&lt;span style=&quot;&quot;&gt;Построить трассировочную таблицу для проверки значений: а) x = 4; б) x = −&lt;/span&gt;&lt;span style=&quot;background-color: initial;&quot;&gt;7/&lt;/span&gt;&lt;span style=&quot;background-color: initial;&quot;&gt;2&lt;/span&gt;&lt;span style=&quot;background-color: initial;&quot;&gt;; в) x = 9.&lt;/span&gt;&lt;/div&gt;&lt;/div&gt;" style="text;html=1;align=center;verticalAlign=middle;resizable=0;points=[];autosize=1;strokeColor=none;fillColor=none;" vertex="1" parent="1">
          <mxGeometry x="69" y="20" width="690" height="130" as="geometry" />
        </mxCell>
      </root>
    </mxGraphModel>
  </diagram>
  <diagram id="usP7nvgyMu-cZShOCvmq" name="вариант 2 задание 6">
    <mxGraphModel dx="1393" dy="766" grid="1" gridSize="10" guides="1" tooltips="1" connect="1" arrows="1" fold="1" page="1" pageScale="1" pageWidth="827" pageHeight="1169" math="0" shadow="0">
      <root>
        <mxCell id="0" />
        <mxCell id="1" parent="0" />
        <mxCell id="xatzJIS6snbrbQb7ZDit-1" style="edgeStyle=orthogonalEdgeStyle;rounded=0;orthogonalLoop=1;jettySize=auto;html=1;exitX=0.5;exitY=1;exitDx=0;exitDy=0;entryX=0.5;entryY=0;entryDx=0;entryDy=0;" parent="1" source="xatzJIS6snbrbQb7ZDit-2" target="xatzJIS6snbrbQb7ZDit-5" edge="1">
          <mxGeometry relative="1" as="geometry" />
        </mxCell>
        <mxCell id="xatzJIS6snbrbQb7ZDit-2" value="Начало" style="rounded=1;whiteSpace=wrap;html=1;arcSize=50;" parent="1" vertex="1">
          <mxGeometry x="213.91" y="140" width="120" height="60" as="geometry" />
        </mxCell>
        <mxCell id="xatzJIS6snbrbQb7ZDit-3" value="Конец" style="rounded=1;whiteSpace=wrap;html=1;arcSize=50;" parent="1" vertex="1">
          <mxGeometry x="213.91" y="830" width="120" height="60" as="geometry" />
        </mxCell>
        <mxCell id="xatzJIS6snbrbQb7ZDit-4" style="edgeStyle=orthogonalEdgeStyle;rounded=0;orthogonalLoop=1;jettySize=auto;html=1;exitX=0.5;exitY=1;exitDx=0;exitDy=0;entryX=0.5;entryY=0;entryDx=0;entryDy=0;" parent="1" source="xatzJIS6snbrbQb7ZDit-5" target="xatzJIS6snbrbQb7ZDit-15" edge="1">
          <mxGeometry relative="1" as="geometry" />
        </mxCell>
        <mxCell id="xatzJIS6snbrbQb7ZDit-5" value="Ввод: a, b, c, d" style="shape=parallelogram;perimeter=parallelogramPerimeter;whiteSpace=wrap;html=1;fixedSize=1;" parent="1" vertex="1">
          <mxGeometry x="213.91" y="220" width="120" height="60" as="geometry" />
        </mxCell>
        <mxCell id="xatzJIS6snbrbQb7ZDit-6" style="edgeStyle=orthogonalEdgeStyle;rounded=0;orthogonalLoop=1;jettySize=auto;html=1;exitX=0.5;exitY=1;exitDx=0;exitDy=0;entryX=0.5;entryY=0;entryDx=0;entryDy=0;" parent="1" source="xatzJIS6snbrbQb7ZDit-7" target="xatzJIS6snbrbQb7ZDit-3" edge="1">
          <mxGeometry relative="1" as="geometry" />
        </mxCell>
        <mxCell id="xatzJIS6snbrbQb7ZDit-7" value="Вывод: a&amp;nbsp;" style="shape=parallelogram;perimeter=parallelogramPerimeter;whiteSpace=wrap;html=1;fixedSize=1;" parent="1" vertex="1">
          <mxGeometry x="213.91" y="750" width="120" height="60" as="geometry" />
        </mxCell>
        <mxCell id="xatzJIS6snbrbQb7ZDit-8" value="" style="strokeWidth=2;html=1;shape=mxgraph.flowchart.annotation_2;align=left;labelPosition=right;pointerEvents=1;" parent="1" vertex="1">
          <mxGeometry x="489.90999999999997" y="222.5" width="50" height="55" as="geometry" />
        </mxCell>
        <mxCell id="xatzJIS6snbrbQb7ZDit-9" value="" style="endArrow=none;dashed=1;html=1;rounded=0;exitX=1;exitY=0.5;exitDx=0;exitDy=0;entryX=0;entryY=0.5;entryDx=0;entryDy=0;entryPerimeter=0;" parent="1" source="xatzJIS6snbrbQb7ZDit-5" target="xatzJIS6snbrbQb7ZDit-8" edge="1">
          <mxGeometry width="50" height="50" relative="1" as="geometry">
            <mxPoint x="339.90999999999997" y="310" as="sourcePoint" />
            <mxPoint x="389.90999999999997" y="260" as="targetPoint" />
          </mxGeometry>
        </mxCell>
        <mxCell id="xatzJIS6snbrbQb7ZDit-10" value="a, b, c, d - целые числа" style="text;html=1;align=center;verticalAlign=middle;resizable=0;points=[];autosize=1;strokeColor=none;fillColor=none;" parent="1" vertex="1">
          <mxGeometry x="519.91" y="235" width="150" height="30" as="geometry" />
        </mxCell>
        <mxCell id="xatzJIS6snbrbQb7ZDit-11" value="2" style="text;html=1;align=center;verticalAlign=middle;resizable=0;points=[];autosize=1;strokeColor=none;fillColor=none;labelBackgroundColor=default;" parent="1" vertex="1">
          <mxGeometry x="226.91" y="205" width="30" height="30" as="geometry" />
        </mxCell>
        <mxCell id="xatzJIS6snbrbQb7ZDit-12" value="9" style="text;html=1;align=center;verticalAlign=middle;resizable=0;points=[];autosize=1;strokeColor=none;fillColor=none;labelBackgroundColor=default;" parent="1" vertex="1">
          <mxGeometry x="226.91" y="816" width="30" height="30" as="geometry" />
        </mxCell>
        <mxCell id="xatzJIS6snbrbQb7ZDit-14" style="edgeStyle=orthogonalEdgeStyle;rounded=0;orthogonalLoop=1;jettySize=auto;html=1;exitX=0.5;exitY=1;exitDx=0;exitDy=0;entryX=0.5;entryY=0;entryDx=0;entryDy=0;" parent="1" source="xatzJIS6snbrbQb7ZDit-15" target="xatzJIS6snbrbQb7ZDit-17" edge="1">
          <mxGeometry relative="1" as="geometry" />
        </mxCell>
        <mxCell id="xatzJIS6snbrbQb7ZDit-15" value="a = a - b" style="rounded=0;whiteSpace=wrap;html=1;" parent="1" vertex="1">
          <mxGeometry x="213.91" y="300" width="120" height="60" as="geometry" />
        </mxCell>
        <mxCell id="4e03xe6NeRrqrlqCFH7h-8" style="edgeStyle=orthogonalEdgeStyle;rounded=0;orthogonalLoop=1;jettySize=auto;html=1;exitX=0.5;exitY=1;exitDx=0;exitDy=0;entryX=0.5;entryY=0;entryDx=0;entryDy=0;" parent="1" source="xatzJIS6snbrbQb7ZDit-17" target="4e03xe6NeRrqrlqCFH7h-3" edge="1">
          <mxGeometry relative="1" as="geometry" />
        </mxCell>
        <mxCell id="xatzJIS6snbrbQb7ZDit-17" value="a = a - c" style="rounded=0;whiteSpace=wrap;html=1;" parent="1" vertex="1">
          <mxGeometry x="213.91" y="380" width="120" height="60" as="geometry" />
        </mxCell>
        <mxCell id="xatzJIS6snbrbQb7ZDit-18" value="3" style="text;html=1;align=center;verticalAlign=middle;resizable=0;points=[];autosize=1;strokeColor=none;fillColor=none;labelBackgroundColor=default;" parent="1" vertex="1">
          <mxGeometry x="226.91" y="285" width="30" height="30" as="geometry" />
        </mxCell>
        <mxCell id="xatzJIS6snbrbQb7ZDit-19" value="4" style="text;html=1;align=center;verticalAlign=middle;resizable=0;points=[];autosize=1;strokeColor=none;fillColor=none;labelBackgroundColor=default;" parent="1" vertex="1">
          <mxGeometry x="224.91" y="365" width="30" height="30" as="geometry" />
        </mxCell>
        <mxCell id="xatzJIS6snbrbQb7ZDit-20" value="" style="strokeWidth=2;html=1;shape=mxgraph.flowchart.annotation_2;align=left;labelPosition=right;pointerEvents=1;" parent="1" vertex="1">
          <mxGeometry x="489.90999999999997" y="302.5" width="50" height="55" as="geometry" />
        </mxCell>
        <mxCell id="xatzJIS6snbrbQb7ZDit-21" value="" style="endArrow=none;dashed=1;html=1;rounded=0;entryX=0;entryY=0.5;entryDx=0;entryDy=0;entryPerimeter=0;exitX=1;exitY=0.5;exitDx=0;exitDy=0;" parent="1" source="xatzJIS6snbrbQb7ZDit-15" target="xatzJIS6snbrbQb7ZDit-20" edge="1">
          <mxGeometry width="50" height="50" relative="1" as="geometry">
            <mxPoint x="369.90999999999997" y="340" as="sourcePoint" />
            <mxPoint x="399.90999999999997" y="337.5" as="targetPoint" />
          </mxGeometry>
        </mxCell>
        <mxCell id="xatzJIS6snbrbQb7ZDit-22" value="a - сумма после покупки первого товара" style="text;html=1;align=center;verticalAlign=middle;resizable=0;points=[];autosize=1;strokeColor=none;fillColor=none;" parent="1" vertex="1">
          <mxGeometry x="519.91" y="315" width="250" height="30" as="geometry" />
        </mxCell>
        <mxCell id="xatzJIS6snbrbQb7ZDit-23" value="" style="strokeWidth=2;html=1;shape=mxgraph.flowchart.annotation_2;align=left;labelPosition=right;pointerEvents=1;" parent="1" vertex="1">
          <mxGeometry x="489.90999999999997" y="382.5" width="50" height="55" as="geometry" />
        </mxCell>
        <mxCell id="xatzJIS6snbrbQb7ZDit-24" value="" style="endArrow=none;dashed=1;html=1;rounded=0;exitX=1;exitY=0.5;exitDx=0;exitDy=0;entryX=0;entryY=0.5;entryDx=0;entryDy=0;entryPerimeter=0;" parent="1" source="xatzJIS6snbrbQb7ZDit-17" target="xatzJIS6snbrbQb7ZDit-23" edge="1">
          <mxGeometry width="50" height="50" relative="1" as="geometry">
            <mxPoint x="333.90999999999997" y="407.5" as="sourcePoint" />
            <mxPoint x="369.90999999999997" y="430" as="targetPoint" />
          </mxGeometry>
        </mxCell>
        <mxCell id="xatzJIS6snbrbQb7ZDit-25" value="a - сумма после покупки второго товара" style="text;html=1;align=center;verticalAlign=middle;resizable=0;points=[];autosize=1;strokeColor=none;fillColor=none;" parent="1" vertex="1">
          <mxGeometry x="519.91" y="395" width="250" height="30" as="geometry" />
        </mxCell>
        <mxCell id="4e03xe6NeRrqrlqCFH7h-1" value="1" style="text;html=1;align=center;verticalAlign=middle;resizable=0;points=[];autosize=1;strokeColor=none;fillColor=none;labelBackgroundColor=default;" parent="1" vertex="1">
          <mxGeometry x="224.91" y="126" width="30" height="30" as="geometry" />
        </mxCell>
        <mxCell id="FADzd2Y8f5OKo8TdqEpI-2" style="edgeStyle=orthogonalEdgeStyle;rounded=0;orthogonalLoop=1;jettySize=auto;html=1;exitX=0.5;exitY=1;exitDx=0;exitDy=0;entryX=0.5;entryY=0;entryDx=0;entryDy=0;" parent="1" source="4e03xe6NeRrqrlqCFH7h-3" target="FADzd2Y8f5OKo8TdqEpI-1" edge="1">
          <mxGeometry relative="1" as="geometry" />
        </mxCell>
        <mxCell id="4e03xe6NeRrqrlqCFH7h-3" value="a = a - d" style="rounded=0;whiteSpace=wrap;html=1;" parent="1" vertex="1">
          <mxGeometry x="213.91" y="459" width="120" height="60" as="geometry" />
        </mxCell>
        <mxCell id="4e03xe6NeRrqrlqCFH7h-4" value="5" style="text;html=1;align=center;verticalAlign=middle;resizable=0;points=[];autosize=1;strokeColor=none;fillColor=none;labelBackgroundColor=default;" parent="1" vertex="1">
          <mxGeometry x="226.91" y="444" width="30" height="30" as="geometry" />
        </mxCell>
        <mxCell id="4e03xe6NeRrqrlqCFH7h-5" value="" style="strokeWidth=2;html=1;shape=mxgraph.flowchart.annotation_2;align=left;labelPosition=right;pointerEvents=1;" parent="1" vertex="1">
          <mxGeometry x="489.90999999999997" y="461.5" width="50" height="55" as="geometry" />
        </mxCell>
        <mxCell id="4e03xe6NeRrqrlqCFH7h-6" value="" style="endArrow=none;dashed=1;html=1;rounded=0;exitX=1;exitY=0.5;exitDx=0;exitDy=0;entryX=0;entryY=0.5;entryDx=0;entryDy=0;entryPerimeter=0;" parent="1" source="4e03xe6NeRrqrlqCFH7h-3" target="4e03xe6NeRrqrlqCFH7h-5" edge="1">
          <mxGeometry width="50" height="50" relative="1" as="geometry">
            <mxPoint x="333.90999999999997" y="486.5" as="sourcePoint" />
            <mxPoint x="369.90999999999997" y="509" as="targetPoint" />
          </mxGeometry>
        </mxCell>
        <mxCell id="4e03xe6NeRrqrlqCFH7h-7" value="a - сумма после покупки третьего товара" style="text;html=1;align=center;verticalAlign=middle;resizable=0;points=[];autosize=1;strokeColor=none;fillColor=none;" parent="1" vertex="1">
          <mxGeometry x="519.91" y="474" width="250" height="30" as="geometry" />
        </mxCell>
        <mxCell id="FADzd2Y8f5OKo8TdqEpI-4" style="edgeStyle=orthogonalEdgeStyle;rounded=0;orthogonalLoop=1;jettySize=auto;html=1;exitX=1;exitY=0.5;exitDx=0;exitDy=0;entryX=0.5;entryY=0;entryDx=0;entryDy=0;" parent="1" source="FADzd2Y8f5OKo8TdqEpI-1" target="FADzd2Y8f5OKo8TdqEpI-3" edge="1">
          <mxGeometry relative="1" as="geometry" />
        </mxCell>
        <mxCell id="FADzd2Y8f5OKo8TdqEpI-7" style="edgeStyle=orthogonalEdgeStyle;rounded=0;orthogonalLoop=1;jettySize=auto;html=1;exitX=0;exitY=0.5;exitDx=0;exitDy=0;entryX=0.5;entryY=0;entryDx=0;entryDy=0;" parent="1" source="FADzd2Y8f5OKo8TdqEpI-1" target="xatzJIS6snbrbQb7ZDit-7" edge="1">
          <mxGeometry relative="1" as="geometry">
            <Array as="points">
              <mxPoint x="149.91" y="575" />
              <mxPoint x="149.91" y="720" />
              <mxPoint x="273.90999999999997" y="720" />
            </Array>
          </mxGeometry>
        </mxCell>
        <mxCell id="FADzd2Y8f5OKo8TdqEpI-1" value="a &amp;gt; 2000" style="rhombus;whiteSpace=wrap;html=1;" parent="1" vertex="1">
          <mxGeometry x="218.91" y="540" width="110" height="70" as="geometry" />
        </mxCell>
        <mxCell id="FADzd2Y8f5OKo8TdqEpI-5" style="edgeStyle=orthogonalEdgeStyle;rounded=0;orthogonalLoop=1;jettySize=auto;html=1;exitX=0.5;exitY=1;exitDx=0;exitDy=0;entryX=0.5;entryY=0;entryDx=0;entryDy=0;" parent="1" source="FADzd2Y8f5OKo8TdqEpI-3" target="xatzJIS6snbrbQb7ZDit-7" edge="1">
          <mxGeometry relative="1" as="geometry">
            <Array as="points">
              <mxPoint x="393.90999999999997" y="720" />
              <mxPoint x="273.90999999999997" y="720" />
            </Array>
          </mxGeometry>
        </mxCell>
        <mxCell id="FADzd2Y8f5OKo8TdqEpI-3" value="a = a - (a * 0,03)" style="rounded=0;whiteSpace=wrap;html=1;" parent="1" vertex="1">
          <mxGeometry x="333.90999999999997" y="625" width="120" height="60" as="geometry" />
        </mxCell>
        <mxCell id="FADzd2Y8f5OKo8TdqEpI-8" value="Да" style="text;html=1;align=center;verticalAlign=middle;resizable=0;points=[];autosize=1;strokeColor=none;fillColor=none;" parent="1" vertex="1">
          <mxGeometry x="328.90999999999997" y="540" width="40" height="30" as="geometry" />
        </mxCell>
        <mxCell id="FADzd2Y8f5OKo8TdqEpI-9" value="Нет" style="text;html=1;align=center;verticalAlign=middle;resizable=0;points=[];autosize=1;strokeColor=none;fillColor=none;" parent="1" vertex="1">
          <mxGeometry x="178.91" y="540" width="40" height="30" as="geometry" />
        </mxCell>
        <mxCell id="vNMa6rAB15duvd-O-Pfj-1" value="" style="strokeWidth=2;html=1;shape=mxgraph.flowchart.annotation_2;align=left;labelPosition=right;pointerEvents=1;" parent="1" vertex="1">
          <mxGeometry x="489.90999999999997" y="627.5" width="50" height="55" as="geometry" />
        </mxCell>
        <mxCell id="vNMa6rAB15duvd-O-Pfj-2" value="" style="endArrow=none;dashed=1;html=1;rounded=0;exitX=1;exitY=0.5;exitDx=0;exitDy=0;entryX=0;entryY=0.5;entryDx=0;entryDy=0;entryPerimeter=0;" parent="1" source="FADzd2Y8f5OKo8TdqEpI-3" target="vNMa6rAB15duvd-O-Pfj-1" edge="1">
          <mxGeometry width="50" height="50" relative="1" as="geometry">
            <mxPoint x="379.90999999999997" y="770" as="sourcePoint" />
            <mxPoint x="535.91" y="770" as="targetPoint" />
          </mxGeometry>
        </mxCell>
        <mxCell id="vNMa6rAB15duvd-O-Pfj-3" value="a - сумма с учётом скидки в 3%" style="text;html=1;align=center;verticalAlign=middle;resizable=0;points=[];autosize=1;strokeColor=none;fillColor=none;" parent="1" vertex="1">
          <mxGeometry x="519.91" y="640" width="200" height="30" as="geometry" />
        </mxCell>
        <mxCell id="vNMa6rAB15duvd-O-Pfj-4" value="6" style="text;html=1;align=center;verticalAlign=middle;resizable=0;points=[];autosize=1;strokeColor=none;fillColor=none;labelBackgroundColor=default;" parent="1" vertex="1">
          <mxGeometry x="224.91" y="546" width="30" height="30" as="geometry" />
        </mxCell>
        <mxCell id="vNMa6rAB15duvd-O-Pfj-5" value="7" style="text;html=1;align=center;verticalAlign=middle;resizable=0;points=[];autosize=1;strokeColor=none;fillColor=none;labelBackgroundColor=default;" parent="1" vertex="1">
          <mxGeometry x="350" y="610" width="30" height="30" as="geometry" />
        </mxCell>
        <mxCell id="vNMa6rAB15duvd-O-Pfj-6" value="8" style="text;html=1;align=center;verticalAlign=middle;resizable=0;points=[];autosize=1;strokeColor=none;fillColor=none;labelBackgroundColor=default;" parent="1" vertex="1">
          <mxGeometry x="224.91" y="735" width="30" height="30" as="geometry" />
        </mxCell>
        <mxCell id="i2NsBVEascPpAFTaz5Ow-1" value="&lt;font style=&quot;font-size: 18px;&quot;&gt;Пирогов Денис 2 ИСП&lt;/font&gt;" style="text;html=1;align=center;verticalAlign=middle;resizable=0;points=[];autosize=1;strokeColor=none;fillColor=none;" vertex="1" parent="1">
          <mxGeometry width="210" height="40" as="geometry" />
        </mxCell>
        <mxCell id="i2NsBVEascPpAFTaz5Ow-2" value="&lt;font style=&quot;font-size: 16px;&quot;&gt;№6&lt;/font&gt;&lt;div style=&quot;font-size: 16px;&quot;&gt;&lt;div&gt;Составить алгоритм, определяющий стоимость покупки с учетом скидки: куплено три&lt;/div&gt;&lt;div&gt;товара и, если сумма покупки превышает 2000 р., то начисляется скидка 3%.&lt;/div&gt;&lt;/div&gt;" style="text;html=1;align=center;verticalAlign=middle;resizable=0;points=[];autosize=1;strokeColor=none;fillColor=none;" vertex="1" parent="1">
          <mxGeometry x="84" y="50" width="660" height="70" as="geometry" />
        </mxCell>
      </root>
    </mxGraphModel>
  </diagram>
</mxfile>
